HIERARCHY
ROOT pelvis
{
  OFFSET 0 100 0
  CHANNELS 6 Xposition Yposition Zposition Zrotation Xrotation Yrotation
  JOINT pelvis_right_femur
  {
    OFFSET -10.78128 -3.44521 -0.5502486
    CHANNELS 3 Zrotation Xrotation Yrotation
    JOINT right_femur_tibia
    {
      OFFSET -0.8047443 -44.0398 -0.1307829
      CHANNELS 3 Zrotation Xrotation Yrotation
      JOINT right_tibia_foot
      {
        OFFSET 3.006224 -47.83518 -5
        CHANNELS 3 Zrotation Xrotation Yrotation
        End Site
        {
          OFFSET 0 -5 15
        }
      }
    }
  }
  JOINT pelvis_left_femur
  {
    OFFSET 10.78128 -3.44521 -0.5502486
    CHANNELS 3 Zrotation Xrotation Yrotation
    JOINT left_femur_tibia
    {
      OFFSET 0.8047443 -44.0398 -0.1307829
      CHANNELS 3 Zrotation Xrotation Yrotation
      JOINT left_tibia_foot
      {
        OFFSET -4.370144 -48.10324 -4.275266
        CHANNELS 3 Zrotation Xrotation Yrotation
        End Site
        {
          OFFSET 0 -5 15
        }
      }
    }
  }
  JOINT pelvis_spine1
  {
    OFFSET 0 6.468898 -3.129235
    CHANNELS 3 Zrotation Xrotation Yrotation
    JOINT spine1
    {
      OFFSET 0 23.15396 4.99043
      CHANNELS 3 Zrotation Xrotation Yrotation
      JOINT spine2
      {
        OFFSET 0 20.79997 -5.064912
        CHANNELS 3 Zrotation Xrotation Yrotation
        JOINT neck
        {
          OFFSET 0 14.38658 9.616178
          CHANNELS 3 Zrotation Xrotation Yrotation
          End Site
          {
            OFFSET 0 20 0
          }
        }
      }
      JOINT right_manubrium
      {
        OFFSET -5.722621 16.35077 3.967754
        CHANNELS 3 Zrotation Xrotation Yrotation
        JOINT right_clavicle
        {
          OFFSET -13.16364 1.694482 -4.693211
          CHANNELS 3 Zrotation Xrotation Yrotation
          JOINT right_humerus
          {
            OFFSET -28.5034 -0.3100689 -2.792744
            CHANNELS 3 Zrotation Xrotation Yrotation
            JOINT right_radius
            {
              OFFSET -25.15693 0.02248979 -1.271978
              CHANNELS 3 Zrotation Xrotation Yrotation
              End Site
              {
                OFFSET -15 0 0
              }
            }
          }
        }
      }
      JOINT left_manubrium
      {
        OFFSET 5.722621 16.35077 3.967754
        CHANNELS 3 Zrotation Xrotation Yrotation
        JOINT left_clavicle
        {
          OFFSET 13.16364 1.694482 -4.693211
          CHANNELS 3 Zrotation Xrotation Yrotation
          JOINT left_humerus
          {
            OFFSET 29.39168 -1.063119 -2.237045
            CHANNELS 3 Zrotation Xrotation Yrotation
            JOINT left_radius
            {
              OFFSET 24.59957 -0.9528479 0.9047498
              CHANNELS 3 Zrotation Xrotation Yrotation
              End Site
              {
                OFFSET 15 -0 -0
              }
            }
          }
        }
      }
    }
  }
}
MOTION
Frames: 19
Frame Time: 0.0416666666667
0 103.5113 0 0.6907277 -1.078333 -0.185828 4.982693 -17.01198 9.461287 -0 38.27403 -0 -6.618601 -16.64599 -1.400479 -7.688195 9.02846 -24.63437 -0 5.76459 -0 13.46973 -16.5165 31.01804 -3.662879 -3.592162 5.10272 2.228017 9.65832 -6.176291 2.280826 22.90594 6.011102 2.975726 -24.49923 10.0952 5.638751 -20.4429 11.52743 84.03633 33.66535 -15.46862 -0 0 17.0119 -4.747383 5.821796 3.097018 6.422736 -18.79164 -1.381039 -95.70038 23.7464 23.19598 0 0 -12.22251 14.31665 18.88916 -3.264298
0.4116987 103.9408 1.393139 0.6109566 -0.8615621 -0.3749479 5.122909 -17.73297 9.223225 -0 37.14038 -0 -6.565498 -16.26939 -1.356752 -7.58776 9.383402 -24.29292 -0 5.9364 -0 13.30485 -16.64662 30.57229 -3.544896 -3.624846 5.066541 2.246855 9.655863 -6.265155 2.266448 22.79382 6.027415 2.963101 -24.54989 10.09689 5.493557 -20.36258 11.47057 84.27438 33.50766 -15.79126 -0 0 16.82648 -4.920185 5.934366 3.106895 6.518195 -18.97582 -1.424834 -95.38296 23.4903 22.85533 0 0 -12.69567 14.52657 18.70062 -3.493586
0.7220666 104.1992 3.229403 0.4993258 -0.7513035 -0.4523066 4.954471 -20.62564 7.665823 -0 33.48128 -0 -7.061993 -13.45428 -1.568242 -7.140669 11.29079 -22.75279 -0 5.94367 -0 11.73512 -17.72679 28.28461 -3.352841 -3.324998 4.474922 2.316434 9.740942 -6.781972 1.974873 22.65011 6.314893 3.13565 -24.37838 9.733906 5.082406 -19.82149 11.41241 85.72465 33.08279 -17.64767 -0 0 15.16638 -6.604488 6.572891 3.874118 6.717198 -20.06863 -2.050327 -93.71557 23.79066 20.86373 0 0 -15.44135 13.34832 18.19403 -1.997158
0.9788652 104.3854 5.375164 0.3413604 -0.2993953 -0.4681472 5.0347 -22.42353 7.000157 -0 30.84485 -0 -7.046069 -12.20924 -1.679294 -6.848064 12.17685 -21.83577 -0 6.113163 -0 10.50387 -18.34908 26.71101 -3.152692 -3.179399 4.223827 2.420941 9.663685 -7.131752 1.795583 22.40907 6.511967 3.208807 -24.47503 9.59446 4.94713 -19.51877 11.35332 86.36488 33.15813 -18.71547 -0 0 14.47438 -7.334555 7.043161 4.226004 6.780877 -20.54737 -2.246769 -92.94352 24.19699 20.08057 0 0 -17.10731 12.29122 17.74177 -0.6171162
1.188656 104.511 7.871706 0.1301135 0.3228307 -0.4303822 5.256802 -24.20121 6.470628 -0 27.97737 -0 -6.900987 -11.19677 -1.738404 -6.558305 12.94473 -20.92253 -0 6.623227 -0 9.296628 -18.81285 25.12355 -2.881908 -3.100884 4.053849 2.535092 9.553558 -7.459567 1.6554 22.10047 6.672054 3.243305 -24.65544 9.517117 4.80217 -19.23397 11.26565 86.9122 33.24185 -19.70106 -0 0 13.93638 -7.875482 7.503616 4.45349 6.854317 -20.94358 -2.347888 -92.26868 24.42752 19.45422 0 0 -18.62993 11.49167 17.21932 0.4715665
1.35998 104.6035 10.73101 -0.1220962 1.056923 -0.348182 5.59281 -25.78903 6.119235 -0 25.19896 -0 -6.679247 -10.41009 -1.764028 -6.279878 13.52254 -20.07627 -0 7.513433 -0 8.0944 -19.08861 23.57252 -2.566783 -3.068435 3.957188 2.657056 9.416768 -7.754982 1.544769 21.75261 6.804559 3.255062 -24.9144 9.4869 4.695032 -18.97546 11.17004 87.34093 33.40305 -20.57069 -0 0 13.55327 -8.216672 7.942992 4.579762 6.898031 -21.2247 -2.359345 -91.7662 24.61094 19.08137 0 0 -19.92147 10.80224 16.67707 1.450699
1.498113 104.6945 13.98762 -0.4163848 1.853287 -0.2279851 6.022669 -27.2165 5.862944 -0 22.5017 -0 -6.450342 -9.648506 -1.759784 -6.000926 13.97042 -19.2242 -0 8.954946 -0 6.84369 -19.15503 21.96912 -2.19869 -3.067394 3.905731 2.778366 9.281297 -8.026312 1.454093 21.37791 6.914471 3.255572 -25.22541 9.477094 4.601355 -18.71844 11.07157 87.73371 33.58277 -21.39062 -0 0 13.2215 -8.459406 8.378879 4.649707 6.908266 -21.44331 -2.328191 -91.3679 24.72145 18.87927 0 0 -21.03834 10.21393 16.1104 2.333362
1.606927 104.8244 17.68663 -0.751207 2.662566 -0.0751574 6.524763 -28.43945 5.659969 -0 19.96735 -0 -6.265499 -8.779249 -1.736926 -5.715094 14.29027 -18.32446 -0 11.12669 -0 5.484526 -18.97317 20.25556 -1.775639 -3.079492 3.881984 2.893296 9.167436 -8.276898 1.373629 20.98982 7.007648 3.255515 -25.56815 9.464374 4.521057 -18.44711 10.98047 88.13505 33.76361 -22.19539 -0 0 12.87634 -8.672545 8.827745 4.702147 6.865048 -21.62137 -2.286837 -91.05092 24.78586 18.82717 0 0 -21.99561 9.656859 15.51755 3.20842
1.688379 105.0425 21.88324 -1.118784 3.407739 0.1029717 7.066931 -29.39013 5.453225 -0 17.68131 -0 -6.185805 -7.660737 -1.707998 -5.418318 14.47866 -17.32468 -0 14.25955 -0 3.974609 -18.48402 18.38954 -1.296916 -3.084428 3.868473 2.991777 9.10541 -8.505483 1.296076 20.61064 7.08425 3.263769 -25.90544 9.420182 4.445002 -18.14451 10.90924 88.59703 33.89836 -23.01487 -0 0 12.44015 -8.942173 9.303994 4.77921 6.750018 -21.78984 -2.277377 -90.77824 24.80367 18.87873 0 0 -22.80466 9.090193 14.89823 4.124827
1.741986 105.4071 26.63295 -1.498706 3.972371 0.2918216 7.601562 -29.94695 5.179903 -0 15.75712 -0 -6.279106 -6.174512 -1.68831 -5.110289 14.50475 -16.17434 -0 18.61376 -0 2.303619 -17.61241 16.37289 -0.7699509 -3.056956 3.85061 3.059064 9.135433 -8.703013 1.216602 20.27698 7.137899 3.287111 -26.17784 9.309658 4.360219 -17.79797 10.87566 89.16499 33.91685 -23.85862 -0 0 11.83398 -9.366081 9.81651 4.925932 6.544408 -21.98255 -2.350198 -90.50892 24.76074 18.97104 0 0 -23.46308 8.48825 14.26145 5.104692
1.764164 105.9868 31.97246 -1.850278 4.189633 0.462162 8.065316 -29.90445 4.779276 -0 14.33699 -0 -6.609828 -4.265728 -1.691624 -4.795678 14.28059 -14.83221 -0 24.44467 -0 0.5233656 -16.27541 14.28715 -0.2159202 -2.967849 3.824287 3.073483 9.310591 -8.847311 1.134848 20.04359 7.152096 3.327745 -26.29659 9.09236 4.247468 -17.40969 10.90454 89.86037 33.71903 -24.69298 -0 0 10.99685 -10.05063 10.36346 5.186539 6.232356 -22.2333 -2.562841 -90.20393 24.61639 19.02829 0 0 -23.94503 7.856677 13.63241 6.117217
1.748016 106.8595 37.88763 -2.108803 3.856162 0.5644075 8.391883 -28.94143 4.223252 -0 13.57556 -0 -7.206456 -2.024324 -1.726028 -4.48047 13.60554 -13.28356 -0 31.90423 -0 -1.231516 -14.40973 12.32699 0.324567 -2.787473 3.811415 3.007086 9.690788 -8.899094 1.055809 19.97771 7.099791 3.380444 -26.15007 8.729144 4.086429 -17.01705 11.02819 90.64456 33.19568 -25.40873 -0 0 9.937367 -11.08947 10.92969 5.595801 5.803361 -22.56039 -2.966665 -89.8524 24.30957 19.00001 0 0 -24.19044 7.226039 13.05345 7.082749
1.68441 108.1051 44.27317 -2.196454 2.793684 0.5329815 8.540371 -26.62978 3.562487 -0 13.57074 -0 -8.009567 0.2182234 -1.794793 -4.156772 12.11033 -11.56126 -0 40.84973 -0 -2.759262 -12.02279 10.79651 0.79087 -2.493774 3.878037 2.832068 10.32133 -8.80556 0.9873003 20.13548 6.950615 3.431413 -25.63641 8.197161 3.868863 -16.71826 11.2815 91.37972 32.28649 -25.80299 -0 0 8.810631 -12.52472 11.49161 6.168875 5.256197 -22.94153 -3.578286 -89.51329 23.79435 18.93415 0 0 -24.11003 6.613893 12.56916 7.925088
1.565516 109.7752 50.90441 -2.05767 0.9716229 0.3074779 8.519531 -22.56036 2.953895 -0 14.21498 -0 -8.824164 1.846079 -1.906366 -3.776067 9.281298 -9.760412 -0 50.54897 -0 -3.872674 -9.26223 10.02695 1.112258 -2.08372 4.13476 2.536421 11.18848 -8.520132 0.932072 20.51867 6.690462 3.461246 -24.72688 7.511442 3.617257 -16.68096 11.6855 91.81967 31.07007 -25.61406 -0 0 7.977442 -14.30039 12.0316 6.898562 4.608735 -23.29046 -4.339034 -89.3434 23.11741 19.04582 0 0 -23.62803 5.949834 12.19033 8.685464
1.391575 111.8268 57.46287 -1.706072 -1.361667 -0.1403058 8.363346 -16.64961 2.598509 -0 15.00458 -0 -9.338231 2.098176 -2.074613 -3.23888 4.699047 -8.020177 -0 59.39047 -0 -4.513767 -6.480252 10.21771 1.229776 -1.584659 4.686733 2.143226 12.16503 -8.036706 0.8807543 21.03754 6.345449 3.450206 -23.52408 6.742757 3.383509 -17.0915 12.21504 91.67209 29.80318 -24.62516 -0 0 7.942391 -16.24893 12.54676 7.768289 3.923957 -23.4674 -5.090949 -89.54312 22.47287 19.65713 0 0 -22.76639 5.042036 11.86028 9.590893
1.179513 114.044 63.65331 -1.238609 -3.674908 -0.7990556 8.064981 -9.505777 2.576545 -0 15.00877 -0 -9.267688 0.4676278 -2.271101 -2.445889 -1.504179 -6.459405 -0 64.95589 -0 -4.782425 -4.231301 11.28937 1.122989 -1.059421 5.531664 1.712958 12.99908 -7.411709 0.8207985 21.53018 5.984397 3.382283 -22.24269 6.014593 3.194351 -18.02803 12.76472 90.74116 28.79086 -22.78215 -0 0 9.090656 -18.15825 13.02363 8.770836 3.344228 -23.35167 -5.617875 -90.19501 22.09737 20.92186 0 0 -21.7052 3.729792 11.47638 10.8705
0.9671397 116.047 69.37111 -0.7881658 -5.379292 -1.631516 7.57623 -2.409361 2.725749 -0 13.32745 -0 -8.569721 -2.821926 -2.360782 -1.39361 -8.373729 -5.12798 -0 64.9575 -0 -4.81443 -3.075831 12.87912 0.8298591 -0.5969125 6.494298 1.310982 13.41258 -6.737524 0.7608355 21.85336 5.682815 3.252885 -21.10128 5.464179 2.98145 -19.34979 13.15919 89.08822 28.14206 -20.23893 -0 0 11.36174 -19.88693 13.38879 9.905221 3.067168 -22.93041 -5.762416 -91.13277 22.02894 22.56761 0 0 -20.68384 2.168174 10.99332 12.38097
0.8037855 117.4581 74.76343 -0.4549704 -6.164754 -2.583566 6.902957 3.451695 2.747334 -0 9.980425 -0 -7.528942 -6.759933 -2.156606 -0.2148892 -14.60047 -4.059378 -0 58.85716 -0 -4.670493 -3.169102 14.53194 0.4441128 -0.2808724 7.312732 0.9642908 13.28073 -6.077154 0.735274 21.97168 5.475826 3.083272 -20.23179 5.172668 2.626 -20.75798 13.24853 87.05278 27.7119 -17.28941 -0 0 14.22401 -21.38995 13.51519 11.1453 3.200887 -22.28562 -5.526405 -92.0672 22.05496 24.11204 0 0 -19.71722 0.8216072 10.52445 13.59991
0.728691 118.1014 80.09363 -0.2802749 -6.14779 -3.591122 6.144662 7.87367 2.491109 -0 6.234351 -0 -6.606685 -10.19814 -1.595726 0.8978178 -19.43477 -3.344428 -0 48.59822 -0 -4.401378 -4.035967 15.96083 0.07576519 -0.1466787 7.821757 0.6597143 12.71325 -5.428757 0.7753272 21.95918 5.343124 2.918684 -19.67362 5.117793 2.114809 -21.99811 13.02362 85.03402 27.33472 -14.21257 -0 0 17.05787 -22.61214 13.31892 12.41236 3.626802 -21.47685 -5.038871 -92.91188 21.9765 25.41203 0 0 -18.44358 0.02677681 10.27599 14.17119
